<?xml version="1.0" standalone="no"?>
<!DOCTYPE svg PUBLIC "-//W3C//DTD SVG 20010904//EN"
 "http://www.w3.org/TR/2001/REC-SVG-20010904/DTD/svg10.dtd">
<svg version="1.0" xmlns="http://www.w3.org/2000/svg"
 width="259.000000pt" height="194.000000pt" viewBox="0 0 259.000000 194.000000"
 preserveAspectRatio="xMidYMid meet">

<g transform="translate(0.000000,194.000000) scale(0.100000,-0.100000)"
fill="#000000" stroke="none">
<path d="M60 975 l0 -145 38 0 37 0 0 47 c0 46 1 48 30 51 108 9 135 28 135
96 0 74 -37 96 -161 96 l-79 0 0 -145z m154 79 c34 -33 4 -77 -48 -72 -26 2
-32 8 -34 31 -2 16 -1 35 2 43 7 19 61 18 80 -2z"/>
<path d="M425 1110 c-44 -18 -69 -58 -73 -120 -8 -105 33 -157 131 -166 94 -9
167 53 167 143 0 100 -53 153 -150 152 -30 0 -64 -4 -75 -9z m125 -62 c26 -29
28 -116 3 -146 -29 -34 -66 -37 -99 -9 -25 22 -29 33 -29 74 0 67 24 103 70
103 22 0 41 -8 55 -22z"/>
<path d="M710 976 l0 -146 40 0 40 0 0 55 c0 48 3 55 19 55 25 0 46 -22 72
-71 18 -36 23 -39 60 -39 l41 0 -27 48 c-15 26 -35 55 -45 65 -17 18 -16 20 6
42 29 29 31 74 5 106 -17 22 -29 24 -115 27 l-96 4 0 -146z m144 78 c31 -30
12 -64 -36 -64 -26 0 -28 3 -28 40 0 36 3 40 24 40 14 0 32 -7 40 -16z"/>
<path d="M972 1093 c3 -26 7 -28 51 -31 l47 -3 0 -115 0 -114 40 0 40 0 0 114
0 115 48 3 c43 3 47 5 50 31 l3 27 -141 0 -141 0 3 -27z"/>
<path d="M1290 975 l0 -145 35 0 35 0 0 60 0 60 65 0 65 0 0 30 0 30 -65 0
c-62 0 -65 1 -65 25 0 23 3 24 68 27 65 3 67 4 70 31 l3 27 -105 0 -106 0 0
-145z"/>
<path d="M1624 1104 c-43 -21 -68 -69 -68 -129 0 -100 63 -160 162 -152 94 7
147 70 138 164 -8 92 -54 133 -148 133 -29 0 -67 -7 -84 -16z m135 -60 c23
-29 29 -101 10 -135 -27 -50 -107 -43 -129 12 -16 37 -7 104 16 130 26 29 78
25 103 -7z"/>
<path d="M1920 975 l0 -145 105 0 105 0 0 25 c0 24 -2 25 -70 25 l-70 0 0 120
0 120 -35 0 -35 0 0 -145z"/>
<path d="M2180 975 l0 -145 40 0 40 0 0 145 0 145 -40 0 -40 0 0 -145z"/>
<path d="M2383 1100 c-42 -25 -63 -68 -63 -125 0 -68 25 -114 74 -136 52 -24
100 -24 154 1 l42 19 0 111 0 110 -32 20 c-44 27 -131 27 -175 0z m127 -40
c11 -6 24 -28 30 -50 31 -117 -82 -192 -133 -88 -43 88 25 180 103 138z"/>
</g>
</svg>
